# xmcd
#
# Track frame offsets:
#	150
#	15807
#	28383
#	41287
#	54371
#	69670
#	79880
#	102572
#	114336
#	135193
#	150428
#	164718
#	178730
#	191751
#	207406
#
# Disc length: 2993 seconds
#
# Revision: 0
# Processed by: cddbd v1.5.2PL0 Copyright (c) Steve Scherf et al.
# Submitted via: EasyCDDAExtractor 16.0.6.1
#
DISCID=c40baf0f
DTITLE=Κονιτοπούλου Στέλλα - Τα νησιώτικα της Στέλλας Κονιτοπούλου
DYEAR=1900
DGENRE=Παραδοσιακή
TTITLE0=Κονιτοπούλου Στέλλα - Μού 'λειψες πολύ [Βασ. Κλουβάτος-Γιάννης Πάριος]
TTITLE1=Κονιτοπούλου Στέλλα - Ποιος άνεμος καλός [Βασ. Κλουβάτος-Ελ. Γιαννατσο
TTITLE1=ύλια]
TTITLE2=Κονιτοπούλου Στέλλα - Τα θαλασσινά σου μάτια [Βασ. Κλουβάτος-Ελ. Γιανν
TTITLE2=ατσούλια]
TTITLE3=Κονιτοπούλου Στέλλα - Φταίει η ματιά σου [Βασ. Κλουβάτος-Θαν. Περιστερ
TTITLE3=άκης]
TTITLE4=Κονιτοπούλου Στέλλα - Χάντρα θαλασσιά [Ευαν. Ρεμπούτσικα-Ελ. Ζιώγα]
TTITLE5=Κονιτοπούλου Στέλλα - Χορέψετε-χορέψετε [μουσ. στ. Γιώρ. Κονιτόπουλος]
TTITLE6=Κονιτοπούλου Στέλλα - Σκοπός του γάμου-Ντάρι ντάρι [διασκ. Γιώρ. Κονιτ
TTITLE6=όπουλος]
TTITLE7=Κονιτοπούλου Στέλλα-Κονιτοπούλου Αγγελική - Τα σφάλματά σου πέλαγα [Βα
TTITLE7=σ. Κλουβάτος-Γιάννης Πάριος]
TTITLE8=Κονιτοπούλου Στέλλα-Κονιτοπούλου Αγγελική - Όλη η γη κι ο ουρανός [Βασ
TTITLE8=Κλουβάτος-Άννα Κουτουμάνου]
TTITLE9=Κονιτοπούλου Στέλλα - Θα τα ξαναπούμε [Βασ. Κλουβάτος-Γιάννης Πάριος]
TTITLE10=Κονιτοπούλου Στέλλα - Καράβια χιώτικα [Παντ. Θαλασσινός-Ηλίας Κατσούλ
TTITLE10=ης]
TTITLE11=Κονιτοπούλου Στέλλα - Έχω μιά δίψα [Βαγγ. Κονιτόπουλος-Ειρήνη Χάλκου]
TTITLE12=Κονιτοπούλου Στέλλα - Γιάντα [παραδοσιακό]
TTITLE13=Κονιτοπούλου Στέλλα - Χαράζει στο Αιγαίο [μουσ. στ. Λευτέρης Βαζαίος]
TTITLE14=Κονιτοπούλου Στέλλα - Τζιβαέρι [παραδοσιακό]
EXTD=
EXTT0=
EXTT1=
EXTT2=
EXTT3=
EXTT4=
EXTT5=
EXTT6=
EXTT7=
EXTT8=
EXTT9=
EXTT10=
EXTT11=
EXTT12=
EXTT13=
EXTT14=
PLAYORDER=
